<!DOCTYPE svg PUBLIC "-//W3C//DTD SVG 1.1//EN" "http://www.w3.org/Graphics/SVG/1.1/DTD/svg11.dtd">

<!-- Uploaded to: SVG Repo, www.svgrepo.com, Transformed by: SVG Repo Mixer Tools -->
<svg height="64px" width="64px" version="1.1" id="Layer_1" xmlns="http://www.w3.org/2000/svg" xmlns:xlink="http://www.w3.org/1999/xlink" viewBox="0 0 512 512" xml:space="preserve" fill="#000000">

<g id="SVGRepo_bgCarrier" stroke-width="0"/>

<g id="SVGRepo_tracerCarrier" stroke-linecap="round" stroke-linejoin="round"/>

<g id="SVGRepo_iconCarrier"> <path style="fill:#3fd100;" d="M444.125,84.977l-24.67,402.949c-0.553,9.023-8.031,16.057-17.07,16.057h-292.77 c-9.04,0-16.518-7.034-17.07-16.057L67.875,84.977"/> <path style="fill:#3fd100;" d="M444.125,84.977H67.875l24.67,402.949c0.553,9.023,8.031,16.057,17.07,16.057h108.332 c-6.574,0-12.013-7.035-12.415-16.057l-16.005-359.433c-0.433-9.734,7.341-17.863,17.085-17.863h235.941L444.125,84.977z"/> <path style="fill:#3fd100;" d="M427.023,84.977l-17.957-23.943c-4.845-6.459-12.448-10.261-20.523-10.261H123.457 c-8.074,0-15.677,3.802-20.523,10.261L84.977,84.977"/> <path style="fill:#3fd100;" d="M208.862,50.772h-85.405c-8.074,0-15.677,3.802-20.523,10.261L84.977,84.977h94.063l13.917-23.943 C196.712,54.574,202.603,50.772,208.862,50.772z"/> <path d="M461.228,76.96h-30.196l-15.552-20.737c-6.325-8.434-16.395-13.468-26.936-13.468h-64.668V33.67 c0-18.566-15.105-33.67-33.67-33.67h-68.409c-18.566,0-33.67,15.105-33.67,33.67v9.086h-64.668 c-10.541,0-20.611,5.034-26.936,13.468L80.969,76.96H50.772c-4.427,0-8.017,3.589-8.017,8.017c0,4.427,3.589,8.017,8.017,8.017 h9.561l24.209,395.422C85.353,501.641,96.366,512,109.615,512h292.77c13.249,0,24.262-10.359,25.072-23.584l24.209-395.422h9.561 c4.427,0,8.017-3.589,8.017-8.017C469.244,80.55,465.655,76.96,461.228,76.96z M204.159,33.67c0-9.725,7.912-17.637,17.637-17.637 h68.409c9.725,0,17.637,7.912,17.637,17.637v9.086H204.159V33.67z M109.348,65.844c3.314-4.418,8.587-7.055,14.109-7.055h265.086 c5.522,0,10.797,2.637,14.109,7.055l8.337,11.116H101.01L109.348,65.844z M411.453,487.436c-0.293,4.783-4.277,8.531-9.069,8.531 h-292.77c-4.792,0-8.776-3.748-9.068-8.531L76.397,92.994H427.02c0.003,0,0.006,0,0.01,0c0.002,0,0.004,0,0.006,0h8.567 L411.453,487.436z"/> <path d="M362.346,256.748c-4.309,1.018-6.977,5.336-5.958,9.645c1.831,7.752,2.76,15.763,2.76,23.811 c0,23.707-7.819,45.994-22.61,64.452c-8.972,11.195-20.21,20.352-32.787,26.94l7.93-11.12c2.571-3.605,1.733-8.611-1.872-11.182 c-3.604-2.571-8.611-1.733-11.182,1.872l-23.422,32.84c-1.604,2.25-1.938,5.169-0.88,7.723s3.356,4.382,6.082,4.839l39.782,6.662 c0.448,0.075,0.894,0.111,1.334,0.111c3.846,0,7.241-2.775,7.897-6.693c0.731-4.366-2.216-8.5-6.582-9.231l-11.181-1.873 c14.338-7.592,27.146-18.077,37.391-30.862c16.851-21.026,26.132-47.477,26.132-74.477c0-9.288-1.073-18.539-3.19-27.498 C370.973,258.399,366.656,255.731,362.346,256.748z"/> <path d="M232.189,390.592c-22.216-5.248-42.361-18.011-56.727-35.937c-14.792-18.457-22.61-40.743-22.61-64.45 c0-0.777,0.016-1.554,0.033-2.33l6.181,12.555c1.395,2.834,4.239,4.478,7.198,4.477c1.189,0,2.396-0.266,3.535-0.826 c3.972-1.956,5.606-6.761,3.651-10.734l-17.817-36.187c-1.221-2.48-3.633-4.156-6.383-4.435c-2.75-0.277-5.45,0.879-7.143,3.063 l-24.719,31.873c-2.714,3.499-2.077,8.534,1.422,11.247c3.498,2.714,8.534,2.078,11.247-1.422l6.782-8.745 c-0.006,0.487-0.021,0.975-0.021,1.462c0,26.999,9.28,53.449,26.131,74.477c16.592,20.706,39.873,35.449,65.554,41.515 c0.62,0.146,1.239,0.216,1.849,0.216c3.632,0,6.924-2.486,7.795-6.175C239.166,395.929,236.498,391.611,232.189,390.592z"/> <path d="M312.687,210.508c-4.257-1.224-8.698,1.231-9.92,5.488c-1.225,4.254,1.232,8.697,5.488,9.92l38.763,11.154 c0.73,0.211,1.475,0.312,2.216,0.312c1.953,0,3.868-0.714,5.358-2.053c2.055-1.847,3.015-4.624,2.539-7.347l-6.96-39.731 c-0.763-4.361-4.919-7.276-9.28-6.514c-4.361,0.764-7.277,4.919-6.514,9.28l1.946,11.11c-21.792-19.955-50.159-31.105-80.323-31.105 c-36.932,0-71.175,16.707-93.947,45.837c-2.727,3.489-2.11,8.527,1.379,11.253c1.467,1.146,3.206,1.702,4.932,1.702 c2.383,0,4.741-1.057,6.321-3.079c19.711-25.217,49.35-39.679,81.315-39.679c26.264,0,50.953,9.771,69.86,27.242L312.687,210.508z"/> </g>

</svg>