<?xml version="1.0" encoding="iso-8859-1"?>
<!-- Uploaded to: SVG Repo, www.svgrepo.com, Generator: SVG Repo Mixer Tools -->
<svg height="60px" width="60px" version="1.1" id="Layer_1" xmlns="http://www.w3.org/2000/svg" xmlns:xlink="http://www.w3.org/1999/xlink" 
	 viewBox="0 0 512 512" xml:space="preserve">
<g transform="translate(0 -1)">
	<path style="fill:#FDC794;" d="M170.667,272.17h-4.741c-18.015,0-33.185-15.17-33.185-34.133s15.17-33.185,33.185-33.185h80.593
		H33.185C15.17,204.852,0,189.681,0,171.667s15.17-33.185,33.185-33.185h270.222l-10.43,12.326l10.43-12.326
		c18.015-25.6,35.081-28.444,66.37-28.444l0,0c44.563,0,75.852,37.926,75.852,37.926l0,0h37.926
		c16.118,0,28.444,12.326,28.444,28.444v171.615c0,15.17-12.326,27.496-28.444,27.496H445.63l0,0
		c-36.978,27.496-45.511,28.444-113.778,28.444c-39.822,0-86.281-12.326-86.281-12.326h-0.948
		c-17.067,5.689-36.03-3.793-41.719-20.859c-5.689-17.067,3.793-36.03,20.859-41.719l-18.963,6.637
		c-17.067,5.689-35.081-2.844-40.77-19.911l-0.948-1.896c-5.689-17.067,2.844-35.081,19.911-40.77l10.43-3.793L170.667,272.17z"/>
	<g>
		<path style="fill:#F9A671;" d="M234.193,403.015c-6.637,0-12.326-1.896-18.963-4.741c-10.43-4.741-18.015-13.274-21.807-24.652
			s-2.844-22.756,1.896-32.237s13.274-18.015,24.652-21.807l98.607-34.133c10.43-3.793,22.756-2.844,32.237,1.896
			c10.43,4.741,18.015,13.274,21.807,24.652l0,0c3.793,10.43,2.844,22.756-1.896,32.237c-4.741,10.43-13.274,18.015-24.652,21.807
			l-98.607,34.133C243.674,402.067,238.933,403.015,234.193,403.015z M332.8,302.511c-2.844,0-4.741,0-7.585,0.948l-98.607,34.133
			c-5.689,1.896-10.43,6.637-13.274,12.326s-2.844,12.326-0.948,18.015c1.896,5.689,6.637,10.43,12.326,13.274
			c5.689,2.844,12.326,2.844,18.015,0.948l98.607-34.133c5.689-1.896,10.43-6.637,13.274-12.326s2.844-12.326,0.948-18.015l0,0
			c-1.896-5.689-6.637-10.43-12.326-13.274C339.437,303.459,336.593,302.511,332.8,302.511z"/>
		<path style="fill:#F9A671;" d="M255.052,290.185c-11.378,0-22.756-4.741-29.393-13.274c-5.689-6.637-15.17-25.6,5.689-56.889
			c11.378-16.119,41.719-56.889,64.474-87.23c2.844-3.793,9.481-4.741,13.274-1.896c3.793,2.844,4.741,9.481,1.896,13.274
			c-22.756,29.393-53.096,70.163-64.474,86.281c-10.43,15.17-12.326,27.496-6.637,35.081c4.741,5.689,15.17,7.585,23.704,4.741
			c31.289-12.326,100.504-74.904,109.037-95.763c1.896-4.741,7.585-6.637,12.326-4.741c4.741,1.896,6.637,7.585,4.741,12.326
			c-11.378,26.548-85.333,91.97-120.415,105.244C265.481,289.237,259.793,290.185,255.052,290.185z"/>
		<path style="fill:#F9A671;" d="M194.37,347.074c-6.637,0-12.326-1.896-18.015-4.741c-10.43-4.741-18.015-13.274-20.859-23.704
			l-0.948-1.896c-7.585-21.807,3.793-45.511,25.6-53.096l37.926-13.274c4.741-1.896,9.481,0.948,11.378,4.741
			c4.741,10.43,23.704,18.015,34.133,14.222c12.326-4.741,32.237-18.015,53.096-36.03c3.793-2.844,8.533-2.844,12.326,0
			c5.689,4.741,10.43,11.378,13.274,18.015l0.948,1.896c7.585,21.807-3.793,45.511-25.6,53.096L208.593,344.23
			C202.904,346.126,199.111,347.074,194.37,347.074z M217.126,271.222l-30.341,10.43c-12.326,3.793-18.015,17.067-14.222,29.393
			l0.948,1.896l0,0c1.896,5.689,5.689,10.43,11.378,13.274c5.689,2.844,11.378,2.844,17.067,0.948l109.037-37.926
			c12.326-3.793,18.015-17.067,14.222-29.393l-0.948-1.896c-0.948-1.896-0.948-2.844-1.896-3.793
			c-20.859,16.119-38.874,28.444-51.2,33.185C253.156,294.926,228.504,286.393,217.126,271.222z"/>
		<path style="fill:#F9A671;" d="M246.519,214.333h-94.815c-5.689,0-9.481-3.793-9.481-9.481s3.793-9.481,9.481-9.481h94.815
			c5.689,0,9.481,3.793,9.481,9.481S252.207,214.333,246.519,214.333z"/>
	</g>
</g>
</svg>