<?xml version="1.0" encoding="iso-8859-1"?>
<!-- Uploaded to: SVG Repo, www.svgrepo.com, Generator: SVG Repo Mixer Tools -->
<svg height="60px" width="60px" version="1.1" id="Layer_1" xmlns="http://www.w3.org/2000/svg" xmlns:xlink="http://www.w3.org/1999/xlink" 
	 viewBox="0 0 512 512" xml:space="preserve">
<g transform="translate(0 -1)">
	<path style="fill:#FDC794;" d="M341.333,272.17h4.741c18.015,0,33.185-15.17,33.185-34.133s-15.17-33.185-33.185-33.185h-80.593
		h213.333c18.015,0,33.185-15.17,33.185-33.185s-15.17-33.185-33.185-33.185H208.593l10.43,12.326l-10.43-12.326
		c-18.015-25.6-35.081-28.444-66.37-28.444l0,0c-44.563,0-75.852,37.926-75.852,37.926l0,0H28.444
		C12.326,147.963,0,160.289,0,176.407v171.615c0,15.17,12.326,27.496,28.444,27.496H66.37l0,0
		c36.978,27.496,45.511,28.444,113.778,28.444c39.822,0,86.281-12.326,86.281-12.326h0.948c17.067,5.689,36.03-3.793,41.719-20.859
		c5.689-17.067-3.793-36.03-20.859-41.719l18.963,6.637c17.067,5.689,35.081-2.844,40.77-19.911l0.948-1.896
		c5.689-17.067-2.844-35.081-19.911-40.77l-10.43-3.793L341.333,272.17z"/>
	<g>
		<path style="fill:#F9A671;" d="M277.807,403.015c-4.741,0-9.481-0.948-14.222-1.896l-98.607-34.133
			c-10.43-3.793-18.963-11.378-24.652-21.807c-4.741-10.43-5.689-21.807-1.896-32.237c7.585-21.807,32.237-34.133,54.044-26.548
			l98.607,34.133c10.43,3.793,18.963,11.378,24.652,21.807c5.689,10.43,5.689,21.807,1.896,32.237
			C311.941,391.637,295.822,403.015,277.807,403.015z M179.2,302.511c-3.793,0-7.585,0.948-10.43,2.844
			c-5.689,2.844-10.43,7.585-12.326,13.274l0,0c-1.896,5.689-1.896,12.326,0.948,18.015c2.844,5.689,7.585,10.43,13.274,12.326
			l98.607,34.133c12.326,3.793,25.6-1.896,30.341-15.17c1.896-5.689,1.896-12.326-0.948-18.015
			c-2.844-5.689-7.585-10.43-13.274-12.326l-98.607-34.133C184.889,303.459,182.044,302.511,179.2,302.511z M147.911,315.785
			L147.911,315.785L147.911,315.785z"/>
		<path style="fill:#F9A671;" d="M256.948,290.185c-5.689,0-10.43-0.948-16.119-2.844
			c-34.133-14.222-108.089-78.696-119.467-105.244c-1.896-4.741,0-10.43,4.741-12.326c4.741-1.896,10.43,0,12.326,4.741
			c8.533,19.911,77.748,82.489,109.985,95.763c8.533,2.844,18.963,0.948,23.704-4.741c5.689-7.585,2.844-19.911-6.637-35.081
			c-10.43-15.17-39.822-54.044-64.474-86.281c-2.844-3.793-2.844-10.43,1.896-13.274c3.793-2.844,10.43-2.844,13.274,1.896
			c22.756,29.393,54.044,70.163,64.474,87.23c20.859,31.289,11.378,50.252,5.689,56.889
			C279.704,285.444,268.326,290.185,256.948,290.185z"/>
		<path style="fill:#F9A671;" d="M317.63,347.074c-4.741,0-9.481-0.948-13.274-1.896l-109.037-37.926
			c-21.807-7.585-33.185-31.289-25.6-53.096l0.948-1.896c2.844-6.637,6.637-13.274,13.274-18.015c3.793-2.844,8.533-2.844,12.326,0
			c21.807,18.015,41.719,31.289,53.096,36.03c11.378,4.741,29.393-2.844,34.133-14.222c1.896-4.741,6.637-6.637,11.378-4.741
			l37.926,13.274c10.43,3.793,18.963,11.378,23.704,20.859c4.741,10.43,5.689,21.807,1.896,32.237l-0.948,0.948l0,0
			c-3.793,10.43-11.378,18.963-20.859,23.704C330.904,345.178,324.267,347.074,317.63,347.074z M189.63,254.156
			c-0.948,0.948-1.896,2.844-1.896,3.793l-0.948,1.896c-3.793,12.326,1.896,24.652,14.222,29.393l109.037,37.926
			c5.689,1.896,12.326,1.896,17.067-0.948c5.689-2.844,9.481-7.585,11.378-13.274l0.948-1.896
			c1.896-5.689,1.896-12.326-0.948-17.067c-2.844-5.689-7.585-9.481-13.274-11.378l-30.341-11.378
			c-12.326,15.17-36.03,23.704-54.044,16.119C228.504,282.6,210.489,270.274,189.63,254.156z M348.919,314.837L348.919,314.837
			L348.919,314.837z"/>
		<path style="fill:#F9A671;" d="M360.296,214.333h-94.815c-5.689,0-9.481-3.793-9.481-9.481s3.793-9.481,9.481-9.481h94.815
			c5.689,0,9.481,3.793,9.481,9.481S365.985,214.333,360.296,214.333z"/>
	</g>
</g>
</svg>